<?xml version="1.0" encoding="UTF-8" standalone="no"?>
<svg
   xmlns:dc="http://purl.org/dc/elements/1.1/"
   xmlns:cc="http://creativecommons.org/ns#"
   xmlns:rdf="http://www.w3.org/1999/02/22-rdf-syntax-ns#"
   xmlns:svg="http://www.w3.org/2000/svg"
   xmlns="http://www.w3.org/2000/svg"
   viewBox="0 0 453.33749 90.425003"
   height="90.425003"
   width="453.33749"
   xml:space="preserve"
   version="1.1"
   id="svg2"><metadata
     id="metadata8"><rdf:RDF><cc:Work
         rdf:about=""><dc:format>image/svg+xml</dc:format><dc:type
           rdf:resource="http://purl.org/dc/dcmitype/StillImage" /></cc:Work></rdf:RDF></metadata><defs
     id="defs6" /><g
     transform="matrix(1.25,0,0,-1.25,0,90.425)"
     id="g10"><g
       transform="scale(0.1,0.1)"
       id="g12"><path
         id="path14"
         style="fill:#231f20;fill-opacity:1;fill-rule:nonzero;stroke:none"
         d="m 1076.27,316.504 0,-118.723 c 0,-29.07 16.01,-36.343 55.74,-36.343 l 15.01,0 c 63,0 90.62,23.257 90.62,75.605 0,44.09 -26.64,79.461 -98.37,79.461 l -63,0 z m 0,170.574 0,-143.926 50.9,0 c 62.98,0 92.05,21.809 92.05,72.7 0,40.214 -27.62,71.226 -92.55,71.226 l -50.4,0 z M 967.242,156.594 c 36.338,1.465 55.728,6.785 55.728,39.258 l 0,257.808 c 0,32.453 -19.39,37.778 -55.728,39.223 l 0,20.847 180.258,0 c 87.73,0 133.27,-31.496 133.27,-94.492 0,-54.754 -46.04,-79.472 -96.44,-88.191 75.12,-5.82 116.3,-40.227 116.3,-95.938 0,-58.164 -49.9,-99.347 -141.97,-99.347 l -191.418,0 0,20.832" /><path
         id="path16"
         style="fill:#231f20;fill-opacity:1;fill-rule:nonzero;stroke:none"
         d="m 1399.5,506.945 c 18.88,0 33.92,-15.019 33.92,-33.918 0,-18.894 -15.04,-33.925 -33.92,-33.925 -18.92,0 -33.93,15.031 -33.93,33.925 0,18.899 15.01,33.918 33.93,33.918 z m 24.7,-324.648 c 0,-22.309 16.48,-24.727 38.76,-27.641 l 0,-18.894 -125.96,0 0,18.894 c 22.28,2.914 38.74,5.332 38.74,27.641 l 0,162.312 -36.34,16.961 0,11.633 70.26,24.231 16.97,0 -2.43,-50.383 0,-164.754" /><path
         id="path18"
         style="fill:#231f20;fill-opacity:1;fill-rule:nonzero;stroke:none"
         d="m 1483.8,146.418 152.64,221.465 -75.11,0 c -24.7,0 -38.79,-9.211 -51.85,-53.305 l -20.35,0 6.78,91.074 19.39,0 5.81,-13.062 177.85,0 0,-12.59 -149.27,-219.531 77.54,0 c 26.15,0 45.56,10.664 58.16,58.164 l 20.35,0 -7.28,-82.871 -214.66,0 0,10.656" /><path
         id="path20"
         style="fill:#231f20;fill-opacity:1;fill-rule:nonzero;stroke:none"
         d="m 1838.99,316.504 0,-118.723 c 0,-29.07 15.99,-36.343 55.71,-36.343 l 15.04,0 c 62.99,0 90.6,23.257 90.6,75.605 0,44.09 -26.65,79.461 -98.35,79.461 l -63,0 z m 0,170.574 0,-143.926 50.87,0 c 63.01,0 92.07,21.809 92.07,72.7 0,40.214 -27.61,71.226 -92.55,71.226 l -50.39,0 z M 1729.96,156.594 c 36.34,1.465 55.73,6.785 55.73,39.258 l 0,257.808 c 0,32.453 -19.39,37.778 -55.73,39.223 l 0,20.847 180.27,0 c 87.71,0 133.24,-31.496 133.24,-94.492 0,-54.754 -46.03,-79.472 -96.42,-88.191 75.09,-5.82 116.3,-40.227 116.3,-95.938 0,-58.164 -49.9,-99.347 -142,-99.347 l -191.39,0 0,20.832" /><path
         id="path22"
         style="fill:#231f20;fill-opacity:1;fill-rule:nonzero;stroke:none"
         d="m 2294.98,178.398 c -20.86,-25.183 -51.86,-47.48 -90.15,-47.48 -47.48,0 -80.93,22.773 -80.93,79.473 l 0,131.797 c 0,17.453 -8.22,22.296 -32.45,25.207 l -8.73,0.964 0,19.383 79.47,9.692 12.6,0 -2.42,-50.383 0,-129.883 c 0,-35.867 20.35,-48.945 48.94,-48.945 29.56,0 53.31,15.515 73.67,32.004 l 0,141.961 c 0,17.453 -8.25,22.296 -32.48,25.207 l -8.72,0.964 0,19.383 79.47,9.692 12.6,0 -2.44,-50.383 0,-156.043 c 0,-16.477 5.34,-19.875 28.13,-22.297 l 13.08,-1.453 0,-19.375 -84.82,-16.965 -7.25,0 2.43,47.48" /><path
         id="path24"
         style="fill:#231f20;fill-opacity:1;fill-rule:nonzero;stroke:none"
         d="m 2416.6,354.316 c -4.85,10.645 -6.79,11.125 -29.57,19.368 l 0,18.906 121.15,0 0,-18.906 c -25.69,-3.379 -35.85,-5.801 -35.85,-17.446 0,-3.867 0.48,-6.765 3.37,-13.086 l 67.37,-155.535 59.6,155.535 c 2.42,6.321 3.39,9.219 3.39,13.086 0,11.645 -10.18,14.067 -35.86,17.446 l 0,18.906 97.89,0 0,-18.906 c -21.81,-7.746 -25.2,-9.2 -29.57,-19.368 L 2527.08,83.9063 C 2503.8,27.2188 2480.07,14.6094 2451,14.6094 c -18.88,0 -32.48,9.6875 -36.84,16.4844 l 0,29.082 29.57,0 c 31.5,0 47.96,6.289 62.5,42.1402 l 13.08,32.965 -102.71,219.035" /><path
         id="path26"
         style="fill:#231f20;fill-opacity:1;fill-rule:nonzero;stroke:none"
         d="m 2681.65,163.867 -3.89,90.617 17.95,0 c 15.02,-52.336 47.96,-94.992 105.16,-94.992 53.29,0 86.24,25.203 86.24,66.867 0,36.844 -26.17,52.852 -66.38,68.817 l -52.82,20.851 c -46.54,18.407 -86.26,39.727 -86.26,100.789 0,57.176 46.03,101.77 122.59,101.77 44.57,0 91.11,-12.617 115.83,-31.992 l 0,-82.383 -16.96,0 c -12.64,52.344 -43.64,85.777 -102.24,85.777 -45.08,0 -70.77,-23.738 -70.77,-62.527 0,-31.973 19.37,-46.504 56.71,-61.043 l 56.68,-22.285 c 53.78,-21.313 92.55,-42.641 92.55,-105.156 0,-69.297 -61.53,-108.059 -140.04,-108.059 -46.53,0 -90.12,13.086 -114.35,32.949" /><path
         id="path28"
         style="fill:#231f20;fill-opacity:1;fill-rule:nonzero;stroke:none"
         d="m 3019.86,305.371 135.18,0 c 0,33.914 -22.74,62.024 -66.38,62.024 -38.25,0 -63.46,-25.684 -68.8,-62.024 z m 188.5,-10.676 0,-13.562 -189.96,0 c 0,-66.863 29.09,-108.059 93.06,-108.059 40.21,0 67.34,18.41 83.35,38.274 l 14.04,-6.278 c -10.64,-35.39 -44.09,-74.152 -112.43,-74.152 -78.02,0 -124.04,55.723 -124.04,125.012 0,84.804 54.28,141.504 128.41,141.504 70.77,0 107.57,-44.582 107.57,-102.739" /><path
         id="path30"
         style="fill:#231f20;fill-opacity:1;fill-rule:nonzero;stroke:none"
         d="m 3316.9,182.297 c 0,-22.309 16.47,-24.727 38.77,-27.641 l 0,-18.894 -126,0 0,18.894 c 22.3,2.914 38.77,5.332 38.77,27.641 l 0,297.039 -36.33,13.074 0,11.633 70.26,24.211 16.96,0 -2.43,-41.66 0,-304.297" /><path
         id="path32"
         style="fill:#231f20;fill-opacity:1;fill-rule:nonzero;stroke:none"
         d="m 3464.68,182.297 c 0,-22.309 16.48,-24.727 38.76,-27.641 l 0,-18.894 -125.96,0 0,18.894 c 22.28,2.914 38.76,5.332 38.76,27.641 l 0,297.039 -36.36,13.074 0,11.633 70.26,24.211 16.99,0 -2.45,-41.66 0,-304.297" /><path
         id="path34"
         style="fill:#00a0df;fill-opacity:1;fill-rule:nonzero;stroke:none"
         d="M 103.695,564.063 347.797,496.77 c 4.894,-1.34 11.144,0.8 14.043,4.832 l 89.219,122.402 c 2.882,4.168 1.855,9.855 -2.305,12.742 l -126.375,84.738 c -4.121,2.735 -10.781,2.579 -14.856,-0.324 L 102.301,572.141 c -4.0627,-3.02 -3.4299,-6.645 1.394,-8.078 z M 501.742,675.488 513.16,422.59 c 0.137,-5.012 4.188,-10.305 8.914,-11.867 l 143.965,-47.012 c 4.875,-1.445 9.992,1.34 11.445,6.133 l 41.504,146.379 c 1.379,4.746 -0.82,11.074 -4.883,14.011 L 508.961,679.402 c -4.102,2.883 -7.363,1.172 -7.219,-3.914 z M 730.727,331.504 493.695,242.52 c -4.726,-1.747 -8.476,-7.176 -8.476,-12.168 L 484.977,78.9258 c 0.144,-5.0664 4.304,-9.0899 9.375,-8.9766 l 151.961,5.7461 c 5,0.1719 10.253,4.1992 11.847,8.961 L 736.637,325.82 c 1.492,4.832 -1.192,7.422 -5.91,5.684 z M 474.273,7.36328 316.402,205.293 c -3.105,3.945 -9.472,5.891 -14.199,4.355 l -144.101,-46.55 c -4.766,-1.692 -7.305,-6.887 -5.637,-11.7 L 204.859,8.57422 c 1.727,-4.63672 7.196,-8.437501 12.235,-8.437501 L 470.707,0 c 5.039,0.0507813 6.672,3.37891 3.566,7.36328 z M 78.7734,152.219 0.53125,393.508 c -1.54297,4.754 0.382813,11.133 4.28906,14.207 L 124.398,501.719 c 4.055,3.058 9.805,2.265 12.864,-1.785 L 226.09,377.336 c 2.93,-4.023 3.047,-10.676 0.262,-14.863 L 86.9102,151.145 c -2.8907,-4.153 -6.5039,-3.672 -8.1368,1.074" /><path
         id="path36"
         style="fill:#231f20;fill-opacity:1;fill-rule:nonzero;stroke:none"
         d="m 3565.43,528.406 12.41,0 18.33,-53.922 18.2,53.922 12.3,0 0,-63.765 -8.25,0 0,37.636 c 0,1.289 0.03,3.457 0.09,6.485 0.06,2.984 0.09,6.226 0.09,9.683 l -18.21,-53.804 -8.56,0 -18.41,53.804 0,-1.953 c 0,-1.558 0.06,-3.965 0.15,-7.144 0.08,-3.227 0.11,-5.571 0.11,-7.071 l 0,-37.636 -8.25,0 0,63.765 z m -7.72,0 0,-7.593 -21.47,0 0,-56.172 -8.75,0 0,56.172 -21.47,0 0,7.593 51.69,0" /></g></g></svg>